<?xml version="1.0" encoding="UTF-8"?><svg id="Layer_2" xmlns="http://www.w3.org/2000/svg" viewBox="0 0 72 48.92"><g id="Layer_1-2"><polygon points="36 11.94 36 5.97 30.03 0 24.06 0 24.06 5.97 24.06 17.9 30.03 23.87 36 23.87 36 17.9 30.03 11.94 36 11.94" fill="#f5bf17"/><polygon points="41.97 11.94 36 11.94 36 17.9 41.97 23.87 47.94 23.87 47.94 17.9 41.97 11.94" fill="#f5bf17"/><path d="m25.33,41.77l-.98-2.09h-6.56l-.98,2.09h-4.41l5.72-11.93h5.9l5.72,11.93h-4.41Zm-6.15-5.07h3.78l-1.89-4.01-1.89,4.01Z" fill="#282828"/><path d="m43.63,29.84v3.48l-7.42,4.97h7.42v3.48h-13.42v-3.48l7.42-4.97h-7.42v-3.48h13.42Z" fill="#282828"/><path d="m56.84,32.99h-8.12v1.24h7.18v3.15h-7.18v1.24h8.12v3.15h-12.26v-11.93h12.26v3.15Z" fill="#282828"/><path d="m72,39.39v2.39h-4.14v-1.69c0-1.06-.27-1.36-1.33-1.36h-4.61v3.05h-4.14v-11.93h9.28c3.3,0,4.94,1.36,4.94,3.86,0,1.82-.78,2.88-2.22,3.38,1.38.08,2.22.88,2.22,2.3Zm-10.08-6.23v2.25h4.14c.93,0,1.62,0,1.62-1.13s-.7-1.13-1.62-1.13h-4.14Z" fill="#282828"/><polygon points="4.14 38.29 4.14 29.84 0 29.84 0 35.8 0 35.81 5.97 41.77 11.93 41.77 11.93 38.29 4.14 38.29" fill="#282828"/><path d="m29.87,47.2c0-1.06.89-1.75,2.25-1.75,1.25,0,2.1.53,2.15,1.3h-1.16c-.06-.2-.44-.39-.99-.39-.71,0-1.13.35-1.13.83,0,.52.47.81,1.25.81.38,0,.79-.05,1.15-.19v-.16h-1.37v-.67h2.24v1.42c-.5.33-1.32.51-2.08.51-1.41,0-2.32-.67-2.32-1.72Z" fill="#282828"/><path d="m36.78,45.53h1.38l1.69,3.3h-1.15l-.29-.61h-1.87l-.29.61h-1.15l1.69-3.3Zm1.25,1.91l-.56-1.18-.57,1.18h1.13Z" fill="#282828"/><path d="m40.05,45.53h3.92v.91h-1.42v2.39h-1.08v-2.39h-1.42v-.91Z" fill="#282828"/><path d="m44.97,45.53h3.37v.81h-2.29v.46h2.2v.74h-2.2v.47h2.29v.81h-3.37v-3.3Z" fill="#282828"/></g></svg>