<?xml version="1.0" encoding="UTF-8"?>
<svg version="1.1" xmlns="http://www.w3.org/2000/svg" width="1200" height="1200">
<path d="M0 0 C79.93764619 -6.67492387 79.93764619 -6.67492387 103.58554649 12.19914055 C110.66537988 18.26990331 117.0522038 24.77794849 123.19919968 31.78498459 C125.61071029 34.49161015 128.09733392 37.10445135 130.61746216 39.70999146 C152.55448299 62.57433582 165.83093379 83.95762904 165.33442211 116.27832127 C164.83391807 131.0280944 163.01792606 145.56057646 160 160 C160.83934586 159.82457169 161.67869171 159.64914337 162.54347229 159.46839905 C192.03057563 153.61653588 226.04642353 149.58855153 252.58984375 166.44824219 C280.31483871 185.09256111 316.0696631 216.65424123 323.38574219 250.69140625 C327.52683339 273.57729779 324.72062612 297.41391982 320 320 C308.19540767 322.42957199 296.39296306 323.98520178 284.375 324.875 C283.4797121 324.94176941 282.58442421 325.00853882 281.66200638 325.07733154 C258.25418917 326.6150433 240.04567293 323.0690683 221.84082031 307.66848755 C212.36266861 299.26863218 203.5341964 290.29215948 194.9375 281 C194.07412773 280.06729027 193.21075546 279.13458054 192.3212204 278.17360687 C181.49350278 266.40983957 171.24717926 254.29999423 161 242 C160.67 267.74 160.34 293.48 160 320 C116.43242919 326.22393869 116.43242919 326.22393869 102.96875 324.84375 C102.04674301 324.74946213 101.12473602 324.65517426 100.17478943 324.55802917 C73.94874383 321.42161983 55.73188914 305.44915596 37.5 287.5 C36.61737614 286.64683323 35.73475227 285.79366646 34.82538223 284.91464615 C5.2247331 256.11674921 -6.97154585 228.92590591 -7.77359009 187.61825562 C-7.94875045 167.46724444 -7.10723881 147.44165298 -5.76217175 127.34615803 C-5.11818064 117.61574531 -4.68809038 107.89162054 -4.39453125 98.14453125 C-4.37351337 97.44867019 -4.35249549 96.75280913 -4.33084071 96.03586137 C-4.22636199 92.54141386 -4.12528371 89.04687779 -4.02588844 85.55228233 C-3.2095592 57.0033569 -1.80706976 28.50283912 0 0 Z M82 160 C86.5893803 165.41261247 86.5893803 165.41261247 91.41023254 170.53721619 C92.31654419 171.44775757 92.31654419 171.44775757 93.24116516 172.37669373 C93.8819249 173.01542923 94.52268463 173.65416473 95.18286133 174.31225586 C95.8746347 175.00578156 96.56640808 175.69930725 97.27914429 176.41384888 C99.54428076 178.68335277 101.81301456 180.94921974 104.08203125 183.21484375 C105.66304396 184.7965305 107.24390823 186.37836564 108.82463074 187.96034241 C112.12552401 191.26270532 115.42820799 194.56326396 118.73217773 197.86254883 C122.97724523 202.10189135 127.21777015 206.345745 131.45699024 210.5909338 C134.71411645 213.85166154 137.97360572 217.11001868 141.23383141 220.36764717 C142.79955235 221.93269917 144.36452566 223.49849948 145.92875099 225.06504631 C148.10480224 227.2436204 150.284004 229.41899176 152.46411133 231.59350586 C153.44043266 232.57286354 153.44043266 232.57286354 154.43647766 233.57200623 C156.84270058 236.57002409 156.84270058 236.57002409 160 238 C160 212.26 160 186.52 160 160 C134.26 160 108.52 160 82 160 Z " fill="#C4A706" transform="translate(440,273)"/>
<path d="M0 0 C22.97625 -0.061875 45.9525 -0.12375 69.625 -0.1875 C76.85873535 -0.21481201 84.0924707 -0.24212402 91.54541016 -0.27026367 C100.43237305 -0.28381348 100.43237305 -0.28381348 104.6031189 -0.28633118 C107.49340842 -0.28910705 110.38352978 -0.30027241 113.27377319 -0.31672668 C116.97701844 -0.33752541 120.68002425 -0.34343321 124.38332248 -0.33921683 C126.36140846 -0.34050711 128.33946888 -0.35648165 130.3174839 -0.37328625 C147.20797301 -0.31527425 163.95744881 3.79155757 177 15 C187.98152763 26.1316657 190.29484796 39.52505096 190.31689453 54.48120117 C190.14987532 67.01485885 187.03519782 77.79286251 178.08203125 86.96484375 C174.03701832 90.66560026 169.85454167 93.47159288 165 96 C165.6290625 96.14695312 166.258125 96.29390625 166.90625 96.4453125 C175.65312677 98.73741575 181.70816737 102.62433141 186.9921875 109.99609375 C190.03452857 116.04539982 190.27730314 121.799776 190.1953125 128.43359375 C190.19329834 129.21287231 190.19128418 129.99215088 190.18920898 130.79504395 C190.17883047 133.67592344 190.15090858 136.55671831 190.125 139.4375 C190.08375 145.893125 190.0425 152.34875 190 159 C171.52 159 153.04 159 134 159 C133.6875 143.875 133.6875 143.875 133.61206055 139.13623047 C133.57894775 137.89244629 133.54583496 136.64866211 133.51171875 135.3671875 C133.48553467 134.09987793 133.45935059 132.83256836 133.43237305 131.52685547 C132.95383983 127.62347272 132.23894939 125.23697094 130 122 C125.63053205 120.1323028 121.79844954 119.7338117 117.07666016 119.68115234 C116.4125412 119.67110672 115.74842224 119.6610611 115.06417847 119.65071106 C112.88914788 119.62004738 110.71423941 119.60289145 108.5390625 119.5859375 C107.02305055 119.56721225 105.50704888 119.54763784 103.99105835 119.5272522 C100.01603266 119.47606809 96.04097323 119.43636931 92.0657959 119.39910889 C87.28819409 119.35191827 82.51075788 119.29037959 77.73329163 119.23126221 C70.48892844 119.14321728 63.2445943 119.07333367 56 119 C56 132.2 56 145.4 56 159 C37.52 159 19.04 159 0 159 C0 106.53 0 54.06 0 0 Z M56 44 C56 53.9 56 63.8 56 74 C63.9385157 74.04202744 71.87662462 74.08208839 79.81515503 74.10350037 C83.51256101 74.11402832 87.20987415 74.12807983 90.90722656 74.15087891 C94.47339285 74.17272955 98.03946953 74.18459419 101.60569763 74.18975449 C103.61741087 74.19520723 105.62908844 74.21080038 107.64074707 74.22659302 C119.04566383 74.46634508 119.04566383 74.46634508 128.9375 69.5625 C132.57752887 65.04003989 132.50899042 60.5711315 132 55 C131.0839511 51.23482264 129.75701608 48.61379682 126.6875 46.125 C121.7821999 44.07161856 116.89456521 43.87572538 111.62744141 43.88647461 C109.76619125 43.88658791 109.76619125 43.88658791 107.86734009 43.88670349 C106.52874714 43.89180887 105.19015461 43.89702485 103.8515625 43.90234375 C102.47008312 43.90421094 101.08860308 43.90563342 99.7071228 43.90663147 C96.08711897 43.91043298 92.46715583 43.92024284 88.84716797 43.93133545 C85.1468156 43.94160065 81.44645639 43.94619495 77.74609375 43.95117188 C70.49736 43.96133555 63.24873772 43.98091321 56 44 Z " fill="#282828" transform="translate(890,672)"/>
<path d="M0 0 C59.4 0 118.8 0 180 0 C180 48 180 48 171.96484375 58.1171875 C168.26448822 60.28734141 164.79712412 62.09333619 160.9375 63.875 C158.97900814 64.95231235 157.03096642 66.04881813 155.09326172 67.16308594 C151.10372226 69.43531301 147.08169676 71.61364698 143.01025391 73.73535156 C134.29055138 78.36094364 126.23694015 83.95864574 118.11477661 89.54595947 C114.20123804 92.22444408 110.24372458 94.83592228 106.2890625 97.453125 C99.1188687 102.19990368 92.07319243 107.10317447 85 112 C132.025 112.495 132.025 112.495 180 113 C180 128.51 180 144.02 180 160 C120.6 160 61.2 160 0 160 C0 113 0 113 8.03515625 102.98046875 C11.7317087 100.8057042 15.20865921 98.98362626 19.0625 97.1875 C21.02079654 96.10519804 22.96883638 95.00415137 24.90673828 93.88574219 C28.8968185 91.6044855 32.91921071 89.41489003 36.98974609 87.28076172 C45.70000799 82.63441233 53.75966594 77.03888576 61.88522339 71.45303345 C65.79932955 68.77574357 69.75655672 66.16413656 73.7109375 63.546875 C80.88110742 58.80005654 87.92680308 53.89682864 95 49 C63.65 48.67 32.3 48.34 0 48 C0 32.16 0 16.32 0 0 Z " fill="#282828" transform="translate(522,671)"/>
<path d="M0 0 C54.12 0 108.24 0 164 0 C164 14.19 164 28.38 164 43 C128.36 43 92.72 43 56 43 C56 48.28 56 53.56 56 59 C87.68 59 119.36 59 152 59 C152 73.19 152 87.38 152 102 C120.32 102 88.64 102 56 102 C56 107.28 56 112.56 56 118 C91.64 118 127.28 118 164 118 C164 131.86 164 145.72 164 160 C109.88 160 55.76 160 0 160 C0 107.2 0 54.4 0 0 Z " fill="#282828" transform="translate(714,671)"/>
<path d="M0 0 C26.4 0 52.8 0 80 0 C96.64743948 34.33534393 96.64743948 34.33534393 103.9128418 50.12451172 C108.93690355 60.99998461 114.22232799 71.74589721 119.5 82.5 C125.97588879 95.69604844 132.36882786 108.91375101 138.50268555 122.27270508 C142.89163596 131.82282335 147.44293248 141.28948495 152.04101562 150.74023438 C152.55986328 151.80951172 153.07871094 152.87878906 153.61328125 153.98046875 C154.07516846 154.92817139 154.53705566 155.87587402 155.01293945 156.85229492 C156 159 156 159 156 160 C136.2 160 116.4 160 96 160 C91.53283585 151.0656717 87.13342908 142.09354397 83 133 C54.62 133 26.24 133 -3 133 C-9.435 146.365 -9.435 146.365 -16 160 C-35.8 160 -55.6 160 -76 160 C-73.75018839 153.25056518 -73.75018839 153.25056518 -72.11157227 149.92016602 C-71.74638992 149.17311401 -71.38120758 148.42606201 -71.00495911 147.65637207 C-70.41662544 146.46715149 -70.41662544 146.46715149 -69.81640625 145.25390625 C-69.40521042 144.41492798 -68.99401459 143.57594971 -68.57035828 142.71154785 C-67.69235915 140.9210114 -66.81269907 139.1312886 -65.93151855 137.34231567 C-64.08739902 133.5977993 -62.2519543 129.84905573 -60.41616821 126.10044861 C-59.50898531 124.24809511 -58.60141549 122.39593105 -57.69345093 120.54396057 C-51.49401113 107.89671407 -45.42704917 95.18892829 -39.453125 82.43359375 C-38.13584618 79.62219434 -36.81809885 76.81101504 -35.5 74 C-35.16826782 73.29232483 -34.83653564 72.58464966 -34.49475098 71.85552979 C-28.01641512 58.04780095 -21.35939599 44.32978183 -14.64648438 30.63476562 C-14.26391479 29.85335709 -13.88134521 29.07194855 -13.48718262 28.26686096 C-12.79092536 26.84529752 -12.09358884 25.42426161 -11.39465332 24.00401306 C-7.49686401 16.04753899 -3.77416866 8.02010841 0 0 Z M39 41 C32.61754681 54.13538384 26.25660395 67.27862821 20.1875 80.5625 C19.76162598 81.48885254 19.33575195 82.41520508 18.89697266 83.36962891 C18.51202637 84.21831543 18.12708008 85.06700195 17.73046875 85.94140625 C17.39426514 86.68076416 17.05806152 87.42012207 16.71166992 88.18188477 C15.87849898 89.98499427 15.87849898 89.98499427 16 92 C31.84 92 47.68 92 64 92 C62.41485891 87.24457673 60.62913111 82.86148265 58.48046875 78.36328125 C57.96979607 77.2831501 57.96979607 77.2831501 57.44880676 76.18119812 C56.36490305 73.8901005 55.27641215 71.60122084 54.1875 69.3125 C52.76300226 66.30921869 51.34033127 63.30507429 49.91796875 60.30078125 C49.57700165 59.58141388 49.23603455 58.86204651 48.88473511 58.12088013 C46.19672038 52.44077365 43.57078009 46.73421805 41 41 C40.34 41 39.68 41 39 41 Z " fill="#282828" transform="translate(361,671)"/>
<path d="M0 0 C18.48 0 36.96 0 56 0 C56 37.29 56 74.58 56 113 C90.32 113 124.64 113 160 113 C160 128.51 160 144.02 160 160 C127.66095541 165.83599211 92.47440751 170.98625266 63.61259079 151.76953506 C36.12735199 132.39218517 2.27063117 101.89263174 -3.85463905 67.31901741 C-7.11215494 44.72076268 -4.02098227 22.28151145 0 0 Z " fill="#282828" transform="translate(120,671)"/>
<path d="M0 0 C3.88860819 2.74437406 6.37853315 4.57574789 7.32421875 9.36328125 C7.44796875 10.29914062 7.57171875 11.235 7.69921875 12.19921875 C5.4498158 12.28041378 3.19957004 12.33849694 0.94921875 12.38671875 C-0.93023438 12.43892578 -0.93023438 12.43892578 -2.84765625 12.4921875 C-6.62192436 12.17197245 -7.44042399 11.44332017 -10.30078125 9.19921875 C-13.20966092 8.76278891 -13.20966092 8.76278891 -16.30078125 8.88671875 C-17.84765625 8.89251953 -17.84765625 8.89251953 -19.42578125 8.8984375 C-22.28482848 9.19754978 -23.95268277 9.56412734 -26.30078125 11.19921875 C-28.15959202 15.75072392 -28.15959202 15.75072392 -27.67578125 20.51171875 C-25.95025467 22.62941046 -24.87981258 23.23260281 -22.30078125 24.19921875 C-19.57198494 24.36536837 -16.96164149 24.43329287 -14.23828125 24.38671875 C-13.15836914 24.38575195 -13.15836914 24.38575195 -12.05664062 24.38476562 C-8.88328988 24.35824737 -6.33028731 24.2090541 -3.30078125 23.19921875 C-8.25078125 22.86921875 -13.20078125 22.53921875 -18.30078125 22.19921875 C-18.30078125 19.55921875 -18.30078125 16.91921875 -18.30078125 14.19921875 C-9.72078125 14.19921875 -1.14078125 14.19921875 7.69921875 14.19921875 C7.69921875 19.80921875 7.69921875 25.41921875 7.69921875 31.19921875 C-0.36386156 34.87503477 -6.15259162 36.41462326 -14.98828125 36.51171875 C-16.27895508 36.55522461 -16.27895508 36.55522461 -17.59570312 36.59960938 C-25.25015653 36.67459648 -30.76153831 34.4304806 -37.17578125 30.38671875 C-40.85173808 26.60264554 -42.44287561 22.42440607 -42.67578125 17.19921875 C-42.43141048 11.70618882 -40.51113086 7.60067619 -36.92578125 3.44921875 C-27.5877623 -4.55479749 -10.91313058 -6.11049551 0 0 Z " fill="#28282B" transform="translate(697.30078125,878.80078125)"/>
<path d="M0 0 C3.93623766 2.66798034 6.86673558 6.10456491 8.98828125 10.34765625 C9.4900669 16.79367193 9.95057399 22.93252284 5.98828125 28.34765625 C0.13496944 34.20096806 -6.43760863 36.68962447 -14.65942383 36.81567383 C-15.41505615 36.80560303 -16.17068848 36.79553223 -16.94921875 36.78515625 C-17.73901123 36.77830811 -18.52880371 36.77145996 -19.3425293 36.7644043 C-26.93600154 36.55506438 -31.96152158 34.80107571 -37.88671875 30.03515625 C-41.66747229 25.25361501 -43.64338047 20.58463333 -43.35546875 14.39453125 C-42.44154576 8.95253524 -40.03632842 4.79919039 -35.63671875 1.47265625 C-26.18067268 -4.9359437 -10.12314429 -4.87799181 0 0 Z M-27.01171875 10.34765625 C-29.34841674 13.03839939 -30.03591678 14.35553699 -29.94921875 17.91015625 C-28.71843377 21.11019721 -27.84315109 22.34493581 -25.01171875 24.34765625 C-19.04709981 26.37396408 -13.88410574 27.04895426 -8.01171875 24.34765625 C-5.37245517 22.29884341 -5.37245517 22.29884341 -4.01171875 19.34765625 C-3.93887356 15.19548018 -4.32405992 13.16425111 -7.01171875 9.97265625 C-13.59142149 6.4086506 -20.55985621 6.41912168 -27.01171875 10.34765625 Z " fill="#28282B" transform="translate(536.01171875,878.65234375)"/>
<path d="M0 0 C0.85142578 -0.02449219 1.70285156 -0.04898438 2.58007812 -0.07421875 C8.80395032 -0.1026599 13.83573299 1.10856177 19.1875 4.375 C21.9745901 7.75329103 22.1875 8.91966576 22.1875 13.375 C17.8975 13.375 13.6075 13.375 9.1875 13.375 C8.8575 12.715 8.5275 12.055 8.1875 11.375 C4.76517028 10.23422343 2.10076783 10.27684883 -1.5 10.3125 C-2.67949219 10.32152344 -3.85898437 10.33054687 -5.07421875 10.33984375 C-5.97785156 10.35144531 -6.88148438 10.36304688 -7.8125 10.375 C-7.8125 11.365 -7.8125 12.355 -7.8125 13.375 C-7.11688965 13.45016846 -6.4212793 13.52533691 -5.70458984 13.6027832 C-2.53079358 13.95251937 0.64073239 14.31983836 3.8125 14.6875 C4.90691406 14.80544922 6.00132812 14.92339844 7.12890625 15.04492188 C17.58862137 16.28107003 17.58862137 16.28107003 22.1875 19.375 C25.01517016 23.61650524 24.95906125 27.39564595 24.1875 32.375 C21.13023779 36.69113489 18.21525389 38.09000486 13.1875 39.375 C9.55899546 39.68354381 5.95243896 39.69968186 2.3125 39.6875 C0.87970703 39.71166992 0.87970703 39.71166992 -0.58203125 39.73632812 C-7.65490312 39.7411792 -13.41957673 38.89794295 -19.25 34.5625 C-21.1790479 31.86183294 -21.35583507 29.6248582 -21.8125 26.375 C-19.75066367 26.29349256 -17.68788651 26.2355806 -15.625 26.1875 C-14.47644531 26.15269531 -13.32789063 26.11789062 -12.14453125 26.08203125 C-8.8125 26.375 -8.8125 26.375 -6.375 27.875 C-2.93660921 29.88771656 0.1420332 29.70648154 4 29.5625 C4.69287109 29.54896484 5.38574219 29.53542969 6.09960938 29.52148438 C7.79591265 29.48638845 9.49181136 29.43258943 11.1875 29.375 C10.6925 27.89 10.6925 27.89 10.1875 26.375 C8.269375 26.21064453 8.269375 26.21064453 6.3125 26.04296875 C4.60411224 25.88339407 2.8957818 25.72320503 1.1875 25.5625 C0.34832031 25.49224609 -0.49085938 25.42199219 -1.35546875 25.34960938 C-7.95767608 24.7098606 -14.1131237 23.66946986 -19.3125 19.25 C-21.41003906 15.2297168 -21.73931156 11.81563626 -20.8125 7.375 C-15.566225 0.12279633 -8.24522709 0.0123155 0 0 Z " fill="#28282B" transform="translate(417.8125,875.625)"/>
<path d="M0 0 C5.65125 -0.0825 11.3025 -0.165 17.125 -0.25 C18.89762207 -0.28641602 20.67024414 -0.32283203 22.49658203 -0.36035156 C23.9169799 -0.37204468 25.33739128 -0.38223503 26.7578125 -0.390625 C27.48282959 -0.41108887 28.20784668 -0.43155273 28.95483398 -0.45263672 C34.13314638 -0.45616298 37.02481101 0.71929421 41 4 C44.10282491 8.55080986 44.77114432 12.64483113 44 18 C42.55440675 22.17615829 40.76666471 24.78303823 37.01513672 27.18847656 C32.62758263 28.9554053 27.77339745 28.39884031 23.125 28.25 C21.52011719 28.22292969 21.52011719 28.22292969 19.8828125 28.1953125 C17.25427822 28.14837439 14.62761087 28.08272933 12 28 C12 30.97 12 33.94 12 37 C8.04 37 4.08 37 0 37 C0 24.79 0 12.58 0 0 Z M12 10 C12 12.64 12 15.28 12 18 C14.60478883 18.0809313 17.20706653 18.14045434 19.8125 18.1875 C20.55048828 18.21263672 21.28847656 18.23777344 22.04882812 18.26367188 C26.27860778 18.36014555 26.27860778 18.36014555 30.01953125 16.62109375 C31.20214865 15.01163796 31.20214865 15.01163796 30.875 12.875 C30.58625 12.25625 30.2975 11.6375 30 11 C26.38132441 9.7937748 23.07493749 9.89183082 19.3125 9.9375 C18.61060547 9.94201172 17.90871094 9.94652344 17.18554688 9.95117188 C15.45699462 9.96293073 13.72848635 9.98086546 12 10 Z " fill="#28282B" transform="translate(446,877)"/>
<path d="M0 0 C3.96 0 7.92 0 12 0 C12 4.62 12 9.24 12 14 C19.26 14 26.52 14 34 14 C34 9.38 34 4.76 34 0 C37.96 0 41.92 0 46 0 C46 12.21 46 24.42 46 37 C42.04 37 38.08 37 34 37 C34 32.71 34 28.42 34 24 C26.74 24 19.48 24 12 24 C12 28.29 12 32.58 12 37 C8.04 37 4.08 37 0 37 C0 24.79 0 12.58 0 0 Z " fill="#28282B" transform="translate(710,877)"/>
<path d="M0 0 C14.52 0 29.04 0 44 0 C44 3.3 44 6.6 44 10 C38.72 10 33.44 10 28 10 C28 18.91 28 27.82 28 37 C24.04 37 20.08 37 16 37 C16 28.09 16 19.18 16 10 C10.72 10 5.44 10 0 10 C0 6.7 0 3.4 0 0 Z " fill="#28282B" transform="translate(760,877)"/>
<path d="M0 0 C14.52 0 29.04 0 44 0 C44 3.3 44 6.6 44 10 C38.72 10 33.44 10 28 10 C28 18.91 28 27.82 28 37 C24.04 37 20.08 37 16 37 C16 28.09 16 19.18 16 10 C10.72 10 5.44 10 0 10 C0 6.7 0 3.4 0 0 Z " fill="#28282B" transform="translate(548,877)"/>
<path d="M0 0 C3.96 0 7.92 0 12 0 C12 8.91 12 17.82 12 27 C20.25 27 28.5 27 37 27 C37 30.3 37 33.6 37 37 C24.79 37 12.58 37 0 37 C0 24.79 0 12.58 0 0 Z " fill="#28282B" transform="translate(597,877)"/>
<path d="M0 0 C3.96 0 7.92 0 12 0 C12 12.21 12 24.42 12 37 C8.04 37 4.08 37 0 37 C0 24.79 0 12.58 0 0 Z " fill="#28282B" transform="translate(638,877)"/>
</svg>
