<?xml version="1.0" encoding="utf-8"?>
<!-- Generator: Adobe Illustrator 27.7.0, SVG Export Plug-In . SVG Version: 6.00 Build 0)  -->
<svg version="1.1" id="Layer_2_00000174595848702075246870000000586677912802048938_"
	 xmlns="http://www.w3.org/2000/svg" xmlns:xlink="http://www.w3.org/1999/xlink" x="0px" y="0px" viewBox="0 0 76.7 50.2"
	 style="enable-background:new 0 0 76.7 50.2;" xml:space="preserve">
<style type="text/css">
	.st0{fill:#F58220;}
	.st1{fill:#282828;}
	.st2{enable-background:new    ;}
</style>
<g id="Layer_1-2">
	<polygon class="st0" points="36,11.9 36,6 30,0 24.1,0 24.1,6 24.1,17.9 30,23.9 36,23.9 36,17.9 30,11.9 	"/>
	<polygon class="st0" points="42,11.9 36,11.9 36,17.9 42,23.9 47.9,23.9 47.9,17.9 	"/>
	<path class="st1" d="M25.3,41.8l-1-2.1h-6.6l-1,2.1h-4.4l5.7-11.9H24l5.7,11.9H25.3z M19.2,36.7H23l-1.9-4
		C21.1,32.7,19.2,36.7,19.2,36.7z"/>
	<path class="st1" d="M43.6,29.8v3.5l-7.4,5h7.4v3.5H30.2v-3.5l7.4-5h-7.4v-3.5C30.2,29.8,43.6,29.8,43.6,29.8z"/>
	<path class="st1" d="M56.8,33h-8.1v1.2h7.2v3.2h-7.2v1.2h8.1v3.2H44.6V29.8h12.3C56.8,29.8,56.8,33,56.8,33z"/>
	<path class="st1" d="M72,39.4v2.4h-4.1v-1.7c0-1.1-0.3-1.4-1.3-1.4h-4.6v3h-4.1V29.8h9.3c3.3,0,4.9,1.4,4.9,3.9
		c0,1.8-0.8,2.9-2.2,3.4C71.2,37.2,72,38,72,39.4z M61.9,33.2v2.2h4.1c0.9,0,1.6,0,1.6-1.1s-0.7-1.1-1.6-1.1L61.9,33.2L61.9,33.2z"
		/>
	<polygon class="st1" points="4.1,38.3 4.1,29.8 0,29.8 0,35.8 0,35.8 6,41.8 11.9,41.8 11.9,38.3 	"/>
	<g class="st2">
		<path class="st1" d="M2.4,45.5h3.4v0.8H3.4v0.5h2.2v0.7H3.4V48h2.3v0.8H2.4V45.5z"/>
	</g>
	<g class="st2">
		<path class="st1" d="M6.8,45.5h1.1v2.4h2.2v0.9H6.8V45.5z"/>
	</g>
	<g class="st2">
		<path class="st1" d="M11.1,45.5h3.4v0.8h-2.3v0.5h2.2v0.7h-2.2V48h2.3v0.8h-3.4V45.5z"/>
	</g>
	<g class="st2">
		<path class="st1" d="M15.4,47.2c0-1,0.9-1.7,2.2-1.7c1.2,0,2.1,0.6,2.2,1.4h-1.1c-0.1-0.3-0.5-0.5-1-0.5c-0.6,0-1.1,0.3-1.1,0.8
			c0,0.5,0.4,0.8,1.1,0.8c0.6,0,1-0.2,1-0.5h1.1c-0.1,0.9-0.9,1.4-2.2,1.4C16.3,48.9,15.4,48.2,15.4,47.2z"/>
	</g>
	<g class="st2">
		<path class="st1" d="M20.6,45.5h3.9v0.9h-1.4v2.4H22v-2.4h-1.4V45.5z"/>
		<path class="st1" d="M25.5,45.5h2.7c0.9,0,1.4,0.3,1.4,1c0,0.5-0.2,0.8-0.7,0.9c0.4,0,0.7,0.3,0.7,0.7v0.7h-1.1v-0.6
			c0-0.3-0.1-0.4-0.4-0.4h-1.5v0.9h-1.1V45.5z M27.9,47c0.3,0,0.5-0.1,0.5-0.3s-0.2-0.3-0.5-0.3h-1.4V47H27.9z"/>
		<path class="st1" d="M30.6,45.5h1.1v3.3h-1.1V45.5z"/>
	</g>
	<g class="st2">
		<path class="st1" d="M32.7,47.2c0-1,0.9-1.7,2.2-1.7c1.2,0,2.1,0.6,2.2,1.4h-1.1c-0.1-0.3-0.5-0.5-1-0.5c-0.6,0-1.1,0.3-1.1,0.8
			c0,0.5,0.4,0.8,1.1,0.8c0.6,0,1-0.2,1-0.5h1.1c-0.1,0.9-0.9,1.4-2.2,1.4C33.6,48.9,32.7,48.2,32.7,47.2z"/>
	</g>
	<g class="st2">
		<path class="st1" d="M40.4,45.5h1.1l1.2,2.6l1.2-2.6h1.2l-1.6,3.3H42L40.4,45.5z"/>
	</g>
	<g class="st2">
		<path class="st1" d="M46.1,45.5h3.4v0.8h-2.3v0.5h2.2v0.7h-2.2V48h2.3v0.8h-3.4V45.5z"/>
	</g>
	<g class="st2">
		<path class="st1" d="M50.5,45.5h1.1v1.2h2v-1.2h1.1v3.3h-1.1v-1.2h-2v1.2h-1.1V45.5z"/>
	</g>
	<g class="st2">
		<path class="st1" d="M55.8,45.5h1.1v3.3h-1.1V45.5z"/>
		<path class="st1" d="M57.9,47.2c0-1,0.9-1.7,2.2-1.7c1.2,0,2.1,0.6,2.2,1.4h-1.1c-0.1-0.3-0.5-0.5-1-0.5c-0.6,0-1.1,0.3-1.1,0.8
			c0,0.5,0.4,0.8,1.1,0.8c0.6,0,1-0.2,1-0.5h1.1c-0.1,0.9-0.9,1.4-2.2,1.4C58.7,48.9,57.9,48.2,57.9,47.2z"/>
	</g>
	<g class="st2">
		<path class="st1" d="M63.3,45.5h1.1v2.4h2.2v0.9h-3.3V45.5z"/>
	</g>
	<g class="st2">
		<path class="st1" d="M67.5,45.5h3.4v0.8h-2.3v0.5h2.2v0.7h-2.2V48h2.3v0.8h-3.4V45.5z"/>
	</g>
	<g class="st2">
		<path class="st1" d="M71.9,47.7H73c0,0.2,0.2,0.4,1,0.4c0.7,0,0.9-0.1,0.9-0.3c0-0.2-0.1-0.2-0.9-0.3l-0.2,0
			c-1.3-0.1-1.8-0.4-1.8-1.1c0-0.7,0.7-1,1.9-1c1.3,0,2,0.4,2,1.1h-1.1c0-0.3-0.3-0.3-0.9-0.3c-0.6,0-0.7,0.1-0.7,0.2
			c0,0.2,0.1,0.2,0.9,0.3l0.2,0c1.1,0.1,1.9,0.2,1.9,1.1c0,0.8-0.7,1.1-1.9,1.1C72.7,48.9,71.9,48.6,71.9,47.7z"/>
	</g>
</g>
</svg>
