<?xml version="1.0" encoding="UTF-8"?><svg id="Layer_2" xmlns="http://www.w3.org/2000/svg" viewBox="0 0 72 48.92"><g id="Layer_1-2"><polygon points="36 11.94 36 5.97 30.03 0 24.06 0 24.06 5.97 24.06 17.9 30.03 23.87 36 23.87 36 17.9 30.03 11.94 36 11.94" fill="#2f82c4"/><polygon points="41.97 11.94 36 11.94 36 17.9 41.97 23.87 47.94 23.87 47.94 17.9 41.97 11.94" fill="#2f82c4"/><path d="m25.33,41.77l-.98-2.09h-6.56l-.98,2.09h-4.41l5.72-11.93h5.9l5.72,11.93h-4.41Zm-6.15-5.07h3.78l-1.89-4.01-1.89,4.01Z" fill="#282828"/><path d="m43.63,29.84v3.48l-7.42,4.97h7.42v3.48h-13.42v-3.48l7.42-4.97h-7.42v-3.48h13.42Z" fill="#282828"/><path d="m56.84,32.99h-8.12v1.24h7.18v3.15h-7.18v1.24h8.12v3.15h-12.26v-11.93h12.26v3.15Z" fill="#282828"/><path d="m72,39.39v2.39h-4.14v-1.69c0-1.06-.27-1.36-1.33-1.36h-4.61v3.05h-4.14v-11.93h9.28c3.3,0,4.94,1.36,4.94,3.86,0,1.82-.78,2.88-2.22,3.38,1.38.08,2.22.88,2.22,2.3Zm-10.08-6.23v2.25h4.14c.93,0,1.62,0,1.62-1.13s-.7-1.13-1.62-1.13h-4.14Z" fill="#282828"/><polygon points="4.14 38.29 4.14 29.84 0 29.84 0 35.8 0 35.81 5.97 41.77 11.93 41.77 11.93 38.29 4.14 38.29" fill="#282828"/><path d="m29.48,47.74h1.12c0,.24.25.4.96.4s.87-.1.87-.28c0-.2-.12-.24-.92-.29h-.16c-1.26-.08-1.82-.39-1.82-1.1s.72-1.02,1.86-1.02c1.3,0,1.99.4,2.03,1.12h-1.12c0-.25-.3-.34-.92-.34-.58,0-.73.09-.73.23,0,.17.12.23.86.28h.19c1.12.1,1.85.22,1.85,1.07s-.73,1.1-1.94,1.1c-1.33,0-2.09-.32-2.13-1.18Z" fill="#282828"/><path d="m34.56,45.53h2.58c.82,0,1.32.46,1.32,1.24s-.5,1.24-1.32,1.24h-1.5v.82h-1.08v-3.3Zm2.32,1.58c.31,0,.46-.06.46-.33s-.15-.33-.46-.33h-1.24v.67h1.24Z" fill="#282828"/><path d="m39.37,47.18c0-1.05.91-1.73,2.31-1.73s2.31.68,2.31,1.73-.9,1.74-2.31,1.74-2.31-.68-2.31-1.74Zm2.31.83c.73,0,1.19-.33,1.19-.83s-.46-.82-1.19-.82-1.18.33-1.18.82.46.83,1.18.83Z" fill="#282828"/><path d="m44.85,45.53h3.92v.91h-1.42v2.39h-1.08v-2.39h-1.42v-.91Z" fill="#282828"/></g></svg>