<?xml version="1.0" encoding="UTF-8"?><svg id="Layer_2" xmlns="http://www.w3.org/2000/svg" viewBox="0 0 72 48.89"><g id="Layer_1-2"><polygon points="36 11.94 36 5.97 30.03 0 24.06 0 24.06 5.97 24.06 17.9 30.03 23.87 36 23.87 36 17.9 30.03 11.94 36 11.94" fill="#bc2e91"/><polygon points="41.97 11.94 36 11.94 36 17.9 41.97 23.87 47.94 23.87 47.94 17.9 41.97 11.94" fill="#bc2e91"/><path d="m25.33,41.77l-.98-2.09h-6.56l-.98,2.09h-4.41l5.72-11.93h5.9l5.72,11.93h-4.41Zm-6.15-5.07h3.78l-1.89-4.01-1.89,4.01Z" fill="#282828"/><path d="m43.63,29.84v3.48l-7.42,4.97h7.42v3.48h-13.42v-3.48l7.42-4.97h-7.42v-3.48h13.42Z" fill="#282828"/><path d="m56.84,32.99h-8.12v1.24h7.18v3.15h-7.18v1.24h8.12v3.15h-12.26v-11.93h12.26v3.15Z" fill="#282828"/><path d="m72,39.39v2.39h-4.14v-1.69c0-1.06-.27-1.36-1.33-1.36h-4.61v3.05h-4.14v-11.93h9.28c3.3,0,4.94,1.36,4.94,3.86,0,1.82-.78,2.88-2.22,3.38,1.38.08,2.22.88,2.22,2.3Zm-10.08-6.23v2.25h4.14c.93,0,1.62,0,1.62-1.13s-.7-1.13-1.62-1.13h-4.14Z" fill="#282828"/><polygon points="4.14 38.29 4.14 29.84 0 29.84 0 35.8 0 35.81 5.97 41.77 11.93 41.77 11.93 38.29 4.14 38.29" fill="#282828"/><path d="m21.21,45.53h2.34c.95,0,1.64.68,1.64,1.63s-.69,1.64-1.64,1.64h-2.34v-3.28Zm1.91,2.37c.65,0,.96-.25.96-.74s-.31-.73-.96-.73h-.83v1.47h.83Z" fill="#282828"/><path d="m25.64,45.53h2.67c.9,0,1.35.34,1.35,1,0,.45-.25.75-.69.88.42.03.68.27.68.67v.72h-1.07v-.55c0-.29-.08-.38-.37-.38h-1.49v.93h-1.07v-3.28Zm2.41,1.49c.29,0,.48-.05.48-.32s-.2-.31-.48-.31h-1.34v.63h1.34Z" fill="#282828"/><path d="m31.75,45.53h1.37l1.67,3.28h-1.14l-.29-.61h-1.86l-.29.61h-1.14l1.68-3.28Zm1.24,1.9l-.56-1.17-.56,1.17h1.12Z" fill="#282828"/><path d="m35.81,47.71l-1.77-2.18h1.33l.98,1.28.98-1.28h1.33l-1.78,2.18v1.09h-1.07v-1.09Z" fill="#282828"/><path d="m39.57,45.53h1.37l1.67,3.28h-1.14l-.29-.61h-1.86l-.29.61h-1.14l1.68-3.28Zm1.24,1.9l-.56-1.17-.56,1.17h1.12Z" fill="#282828"/><path d="m42.57,47.18c0-1.05.88-1.73,2.24-1.73,1.24,0,2.09.52,2.14,1.29h-1.15c-.06-.2-.44-.38-.98-.38-.7,0-1.12.35-1.12.83,0,.52.47.8,1.25.8.37,0,.79-.05,1.14-.19v-.16h-1.36v-.67h2.22v1.41c-.5.33-1.31.51-2.07.51-1.4,0-2.31-.67-2.31-1.71Z" fill="#282828"/><path d="m47.44,45.53h3.35v.81h-2.28v.46h2.18v.74h-2.18v.46h2.28v.81h-3.35v-3.28Z" fill="#282828"/></g></svg>